<svg id="Capa_1" enable-background="new 0 0 512 512" height="512" viewBox="0 0 512 512" width="512" xmlns="http://www.w3.org/2000/svg"><g><g><path d="m350.541 369.261c-6.618.757-13.074-2.466-15.753-5.89-2.553-3.264-7.266-3.838-10.528-1.287-3.263 2.552-3.838 7.266-1.286 10.528 3.798 4.856 10.539 9.396 18.733 11.078-1.972 5.166-5.553 11.682-11.845 15.843-7.361 4.869-17.276 5.675-29.467 2.397-9.729-2.997-20.653-9.447-23.222-17.152-1.311-3.93-5.557-6.054-9.487-4.744s-6.053 5.558-4.743 9.487c2.169 6.507 6.64 11.667 11.643 15.662-28.26 3.797-83.706 9.764-168.151 12.566 3.33-13.994 7.344-28.479 11.89-40.453 1.399.653 2.778 1.321 4.115 2.012 1.102.569 2.279.839 3.438.839 2.715 0 5.335-1.479 6.668-4.057 1.902-3.679.462-8.204-3.217-10.107-3.896-2.015-12.453-5.628-12.526-5.654-21.379-8.416-42.97-11.046-57.371-11.765-.031-.002-21.479-.201-22.59-.15-12.044 0-21.843-9.799-21.843-21.843v-22.291c0-11.427 8.592-20.784 19.986-21.766 3.551-.306 7.396-.523 11.495-.598-2.21 8.547-3.404 23.999 9.567 39.367 1.483 1.758 3.602 2.663 5.735 2.663 1.708 0 3.426-.581 4.833-1.769 3.166-2.671 3.566-7.403.894-10.569-11.484-13.606-6.433-26.936-5.406-29.272 9.237.665 19.301 2.138 29.89 4.821-2.047 10.538-2.952 29.317 12.141 41.894 1.402 1.168 3.104 1.739 4.797 1.738 2.148 0 4.282-.919 5.766-2.699 2.652-3.182 2.222-7.911-.96-10.563-8.555-7.13-8.457-18.628-7.27-26.013 7.612 2.665 15.41 5.993 23.298 10.133 2.194 1.152 4.368 2.269 6.531 3.366-1.803 7.821-3.404 23.167 6.722 36.718 1.473 1.971 3.729 3.011 6.014 3.011 1.562 0 3.137-.486 4.484-1.493 3.318-2.479 3.998-7.18 1.518-10.498-5.284-7.071-5.478-15.314-4.739-20.911 29.966 14 56.883 22.511 81.789 25.888 4.116.556 7.884-2.32 8.44-6.424.557-4.104-2.32-7.883-6.424-8.44-8.081-1.096-16.421-2.799-25.041-5.081.51-1.895.783-3.857.783-5.848 0-12.395-10.084-22.479-22.479-22.479-9.154 0-17.041 5.503-20.544 13.371-9.662-4.195-19.667-8.996-30.083-14.463-40.145-21.071-78.193-22.941-103.041-20.797-1.149.099-2.28.252-3.393.45-1.385-6.188-2.286-12.464-2.682-18.766h22.253c10.448 0 20.702-3.584 28.875-10.093l5.857-4.665c3.24-2.581 3.775-7.299 1.194-10.539s-7.3-3.775-10.539-1.194l-5.857 4.665c-5.528 4.402-12.464 6.827-19.53 6.827h-21.736c3.023-14.976 14.935-26.853 30.538-29.463l47.076-7.875c4.085-.683 6.843-4.549 6.16-8.634s-4.548-6.844-8.634-6.16l-47.077 7.877c-25.39 4.248-43.818 26.015-43.818 51.758 0 10.726 1.304 21.449 3.848 31.923-9.872 6.612-16.23 17.84-16.23 30.603v22.291c0 11.96 5.729 22.608 14.586 29.343-8.857 6.735-14.586 17.382-14.586 29.343v12.088c0 9.906 3.875 19.202 10.913 26.176 6.951 6.888 16.137 10.668 25.902 10.668.114 0 .23-.001.344-.002 5.359-.048 10.613-.112 15.8-.186 2.898 10.503 7.271 20.631 13.681 29.635 3.394 4.776 8.624 7.442 14.241 7.442 1.317 0 2.656-.146 3.997-.447 6.966-1.561 12.279-7.109 13.535-14.13 1.173-6.527 2.732-14.718 4.625-23.635 122.108-3.863 184.024-14.084 194.996-16.052 15.925 3.964 29.457 2.333 40.238-4.862 12.201-8.143 17.324-21.281 19.335-28.71 9.716-2.22 22.116-7.906 30.199-18.872 2.508.943 5.176 1.438 7.903 1.438 12.395 0 22.479-10.084 22.479-22.479s-11.305-22.428-23.699-22.428c-1.896-9.081-5.375-17.907-10.411-26.379-3.978-6.691-10.698-11.144-18.438-12.217-7.718-1.069-15.363 1.375-20.986 6.707-21.693 20.571-47.241 32.294-75.935 34.843-4.126.367-7.173 4.008-6.807 8.134.367 4.126 4.021 7.175 8.135 6.807 32.146-2.856 60.719-15.944 84.927-38.899 2.297-2.178 5.437-3.175 8.605-2.734 3.198.443 5.97 2.275 7.604 5.024 6.638 11.167 10.003 23.006 10.003 35.189.002 27.981-29.42 31.741-30.645 31.884zm-163.176-64.801c4.124 0 7.479 3.355 7.479 7.479 0 .537-.075 1.064-.186 1.581-4.561-1.5-9.212-3.173-13.94-4.991 1.241-2.413 3.752-4.069 6.647-4.069zm-150.342 114.729c-5.901.057-11.385-2.192-15.552-6.322-4.173-4.135-6.471-9.647-6.471-15.521v-12.088c0-12.044 9.799-21.843 21.843-21.843.657 0 10.847-.084 13.39-.088-2.151 15.387-3.474 35.6-.429 55.716-4.211.056-8.457.107-12.781.146zm46.626 34.666c-.272 1.524-1.401 1.995-2.049 2.141-.641.143-1.847.198-2.736-1.053-19.325-27.141-16.751-68.81-13.567-90.951 11.008.935 24.923 3.077 39.077 7.779-9.234 24.207-16.284 57.382-20.725 82.084zm312.061-103.047c-.43 0-.853-.046-1.271-.117 1.113-4.003 1.748-8.423 1.748-13.314 0-.502-.016-1.002-.026-1.503 3.913.236 7.027 3.485 7.027 7.456 0 4.123-3.354 7.478-7.478 7.478z"/><path d="m411.085 44.784c-24.15-7.769-55.329-3.642-81.375 10.764-13.234 7.321-21.006 19.487-22.642 35.316-61.726 2.081-104.508 30.47-129.829 54.439-12.089 11.444-25.85 20.598-40.899 27.209-3.792 1.666-5.516 6.091-3.85 9.883 1.235 2.811 3.985 4.485 6.871 4.485 1.007 0 2.031-.204 3.013-.635 16.633-7.307 31.833-17.417 45.178-30.049 24.32-23.023 66.052-50.467 126.752-50.467 15.311 0 30.149 1.572 44.186 4.64.639 14.07 3.489 25.098 3.641 25.675 1.052 4.003 5.143 6.396 9.152 5.346 4.004-1.048 6.401-5.146 5.357-9.151-.155-.594-15.074-59.502 20.171-69.167 27.773-7.616 58.227-3.103 75.774 11.23 12.055 9.846 17.587 23.547 16.441 40.722-1.349 20.228-11.954 36.657-31.522 48.834-15.264 9.497-30.466 12.731-30.605 12.761-4.059.83-6.675 4.793-5.845 8.851.727 3.551 3.852 5.998 7.34 5.998.498 0 1.004-.05 1.511-.154.653-.133 14.983-3.14 30.881-11.991 4.158 6.238 7.953 12.815 11.4 19.71-11.677.796-20.936 10.544-20.936 22.42 0 12.395 10.084 22.479 22.479 22.479 5.104 0 9.814-1.713 13.592-4.59 6.439 23.988 9.681 50.769 9.681 80.174v77.844c0 4.142 3.357 7.5 7.5 7.5s7.5-3.358 7.5-7.5v-77.844c0-59.95-13-109.838-38.648-148.381 18.632-14.211 29.173-33.091 30.642-55.112 1.466-21.984-6.113-40.428-21.919-53.337-17.364-14.181-44.267-20.755-70.992-17.902zm-52.266 50.317c-11.788-2.398-24.063-3.812-36.654-4.228 1.405-10.188 6.272-17.478 14.806-22.199 12.522-6.926 26.662-11.144 40.205-12.352-10.447 8.163-16.69 21.278-18.357 38.779zm114.909 133.831c-4.124 0-7.479-3.355-7.479-7.479s3.354-7.479 7.479-7.479 7.479 3.355 7.479 7.479c-.001 4.124-3.355 7.479-7.479 7.479z"/><path d="m458.749 360.492c-12.396 0-22.479 10.084-22.479 22.479s10.084 22.479 22.479 22.479 22.479-10.084 22.479-22.479-10.084-22.479-22.479-22.479zm0 29.957c-4.124 0-7.479-3.355-7.479-7.479s3.355-7.479 7.479-7.479 7.479 3.355 7.479 7.479-3.355 7.479-7.479 7.479z"/><path d="m338.821 261.208c21.666-13.359 34.684-36.557 34.684-61.983 0-11.15-2.465-21.858-7.327-31.829-1.815-3.723-6.302-5.269-10.028-3.454-3.724 1.815-5.27 6.305-3.454 10.028 3.854 7.906 5.81 16.403 5.81 25.255 0 13.191-4.389 25.611-12.232 35.596.173-2.042.282-4.102.282-6.188 0-40.098-32.622-72.72-72.721-72.72-4.251 0-8.41.387-12.462 1.091 10.492-9.827 24.441-15.498 39.413-15.498 10.744 0 21.235 2.98 30.338 8.618 3.523 2.182 8.146 1.094 10.325-2.427 2.182-3.521 1.095-8.144-2.427-10.325-11.478-7.108-24.699-10.866-38.236-10.866-27.692 0-52.613 15.386-65.037 40.154-10.596 6.55-19.423 15.822-25.494 26.732-3.927-3.35-9.012-5.378-14.566-5.378-12.395 0-22.479 10.084-22.479 22.479s10.084 22.479 22.479 22.479c1.904 0 3.752-.24 5.519-.688 1.908 38.409 33.754 69.07 72.627 69.07 28.39-.001 53.016-16.364 64.986-40.146zm-143.133-43.237c-4.124 0-7.479-3.355-7.479-7.479s3.355-7.479 7.479-7.479 7.479 3.355 7.479 7.479-3.355 7.479-7.479 7.479zm135.867 10.662c0 31.827-25.894 57.72-57.721 57.72s-57.72-25.893-57.72-57.72 25.893-57.72 57.72-57.72 57.721 25.893 57.721 57.72z"/><path d="m273.836 260.135c17.37 0 31.502-14.132 31.502-31.503s-14.132-31.502-31.502-31.502c-17.371 0-31.503 14.132-31.503 31.502s14.132 31.503 31.503 31.503zm0-48.005c9.1 0 16.502 7.403 16.502 16.502s-7.402 16.503-16.502 16.503-16.503-7.403-16.503-16.503 7.403-16.502 16.503-16.502z"/><path d="m273.729 236.133h.105c4.143 0 7.5-3.358 7.5-7.5s-3.357-7.5-7.5-7.5h-.105c-4.143 0-7.5 3.358-7.5 7.5s3.357 7.5 7.5 7.5z"/><path d="m447.388 91.971c4.143 0 7.5-3.358 7.5-7.5s-3.357-7.5-7.5-7.5c-15.579 0-28.144 5.12-37.346 15.218-18.881 20.718-15.94 54.899-15.806 56.345.361 3.887 3.628 6.799 7.457 6.799.229 0 .46-.01.692-.032 4.12-.376 7.157-4.024 6.787-8.145-.014-.163-.783-9.392 1.128-20.24 3.778-2.434 13.585-6.675 31.672-1.734 3.989 1.091 8.119-1.261 9.211-5.258 1.092-3.996-1.262-8.12-5.258-9.212-12.313-3.366-22.042-3.342-29.464-1.929 1.325-2.329 2.878-4.535 4.702-6.53 6.327-6.918 14.905-10.282 26.225-10.282z"/><path d="m136.694 267.914c12.395 0 22.479-10.084 22.479-22.479s-10.084-22.479-22.479-22.479-22.479 10.084-22.479 22.479c.001 12.395 10.085 22.479 22.479 22.479zm0-29.957c4.124 0 7.479 3.355 7.479 7.479s-3.355 7.479-7.479 7.479-7.479-3.355-7.479-7.479c.001-4.124 3.356-7.479 7.479-7.479z"/><path d="m401.501 210.316c-12.396 0-22.479 10.084-22.479 22.479s10.084 22.479 22.479 22.479 22.479-10.084 22.479-22.479c-.001-12.395-10.084-22.479-22.479-22.479zm0 29.958c-4.124 0-7.479-3.355-7.479-7.479s3.355-7.479 7.479-7.479 7.479 3.355 7.479 7.479c-.001 4.124-3.355 7.479-7.479 7.479z"/><path d="m452.31 313.315c12.395 0 22.479-10.084 22.479-22.479s-10.084-22.479-22.479-22.479-22.479 10.084-22.479 22.479c0 12.396 10.084 22.479 22.479 22.479zm0-29.957c4.124 0 7.479 3.355 7.479 7.479s-3.354 7.479-7.479 7.479-7.479-3.355-7.479-7.479 3.355-7.479 7.479-7.479z"/></g></g></svg>